<svg width="48" height="48" viewBox="0 0 48 48" fill="none" xmlns="http://www.w3.org/2000/svg">
<path d="M16.983 23.4919L8.94913 8.30606C8.94913 6.94677 10.0339 7.03172 10.5763 7.24412L17.1577 13.0023C17.7041 13.4803 18.5144 13.4984 19.0816 13.0453L34.983 0.341456C37.1186 -0.720489 37.322 0.87243 35.7966 2.67774L18.8135 23.9167L18.1017 24.4477H17.6949L16.983 23.4919Z" fill="#2A6600"/>
<path d="M21.1086 15.8312L36.5085 0.0891999C37.2203 0.407784 36.6779 1.66372 36.3051 2.23009L18.9152 24L18.2034 24.531H17.5932L16.8813 23.5752L8.84743 8.49557C8.76608 7.56106 9.25422 7.25663 9.45761 7.22124L15.3915 15.4094C16.7549 17.2908 19.4837 17.4921 21.1086 15.8312Z" fill="#4DAD09"/>
<path d="M21.1525 8.38938C21.1525 10.0902 19.8322 11.469 18.2034 11.469C16.5746 11.469 15.2542 10.0902 15.2542 8.38938C15.2542 6.68854 16.5746 5.30973 18.2034 5.30973C19.8322 5.30973 21.1525 6.68854 21.1525 8.38938Z" fill="#2A6600"/>
<g filter="url(#filter0_i_459_1356)">
<path d="M11.3898 22.7257C9.59999 21.9611 8.81355 22.7611 8.64406 23.2566C9.8644 22.9168 12.2712 23.1575 13.322 23.2991C12.7525 23.2142 11.7966 22.8672 11.3898 22.7257Z" fill="#C69084"/>
<path d="M5.38982 27.1858L0.101685 17.7345C0.101685 17.1398 0.508464 16.9911 0.711854 16.9911H1.7288C0.949142 15.9292 -0.142383 13.9327 1.7288 14.4425C3.59999 14.9522 4.33897 16.8496 4.47457 17.7345L5.99999 19.5398C8.17935 20.4031 8.67532 22.118 8.65815 23.0442C8.65673 23.1207 8.65181 23.1918 8.64406 23.2566C6.20338 23.7876 7.32202 26.0177 7.52541 25.9115C7.68812 25.8265 10.1017 26.4425 11.2881 26.7611C11.8644 27.0796 13.6881 27.8867 16.3729 28.5664C18.775 29.1745 20.3251 30.1113 20.9647 30.6314C18.7861 28.767 16.5706 28.5634 16.3729 28.4602C16.1695 28.354 12.5085 27.1858 11.5932 26.7611C10.861 26.4212 8.57626 25.9115 7.52541 25.6991C6.87457 24.5097 7.7966 23.7876 8.33897 23.5752C9.07117 22.9805 11.8305 23.115 13.1186 23.2566C13.322 23.2566 15.1525 23.5752 16.7796 24.3186C18.0813 24.9133 19.4237 24.5664 19.9322 24.3186C21.0712 23.2142 22.9152 23.0088 23.6949 23.0442C23.8305 23.0088 24.4678 22.8956 25.9322 22.7257C27.7627 22.5133 31.322 22.8319 33.661 25.1681C35.5322 27.0372 36.4746 28.0708 36.7119 28.354C36.8135 28.4248 38.0542 29.9469 42.2034 35.469C46.3525 40.9911 47.7966 44.5664 48 45.6637C43.9661 45.7345 35.9186 45.8336 36 45.6637C36.1017 45.4513 33.8644 40.4602 32.4407 38.5487C31.3017 37.0195 29.8644 35.8584 29.2881 35.469C27.0915 33.6 23.9661 33.3805 22.983 33.6637C17.7763 33.154 16.4068 33.1681 16.3729 33.2389C14.9085 33.8336 13.4576 32.4956 12.9152 31.7522C8.44067 28.6938 6.03389 27.4336 5.38982 27.1858Z" fill="#C69084"/>
</g>
<defs>
<filter id="filter0_i_459_1356" x="-2.89832" y="10.3607" width="50.8983" height="35.3969" filterUnits="userSpaceOnUse" color-interpolation-filters="sRGB">
<feFlood flood-opacity="0" result="BackgroundImageFix"/>
<feBlend mode="normal" in="SourceGraphic" in2="BackgroundImageFix" result="shape"/>
<feColorMatrix in="SourceAlpha" type="matrix" values="0 0 0 0 0 0 0 0 0 0 0 0 0 0 0 0 0 0 127 0" result="hardAlpha"/>
<feOffset dx="-3" dy="-15"/>
<feGaussianBlur stdDeviation="2"/>
<feComposite in2="hardAlpha" operator="arithmetic" k2="-1" k3="1"/>
<feColorMatrix type="matrix" values="0 0 0 0 0 0 0 0 0 0 0 0 0 0 0 0 0 0 0.25 0"/>
<feBlend mode="normal" in2="shape" result="effect1_innerShadow_459_1356"/>
</filter>
</defs>
</svg>
