<svg width="324" height="48" viewBox="0 0 324 48" fill="none" xmlns="http://www.w3.org/2000/svg">
<path d="M16.983 23.4919L8.94914 8.30606C8.94914 6.94677 10.0339 7.03172 10.5763 7.24412L17.1577 13.0023C17.7041 13.4803 18.5144 13.4984 19.0817 13.0453L34.983 0.341456C37.1186 -0.720489 37.322 0.87243 35.7966 2.67774L18.8136 23.9167L18.1017 24.4477H17.6949L16.983 23.4919Z" fill="#2A6600"/>
<path d="M21.1086 15.8312L36.5085 0.0891999C37.2203 0.407784 36.678 1.66372 36.3051 2.23009L18.9152 24L18.2034 24.531H17.5932L16.8813 23.5752L8.84744 8.49557C8.76609 7.56106 9.25423 7.25663 9.45762 7.22124L15.3915 15.4094C16.7549 17.2908 19.4837 17.4921 21.1086 15.8312Z" fill="#4DAD09"/>
<path d="M21.1525 8.38938C21.1525 10.0902 19.8322 11.469 18.2034 11.469C16.5746 11.469 15.2542 10.0902 15.2542 8.38938C15.2542 6.68854 16.5746 5.30973 18.2034 5.30973C19.8322 5.30973 21.1525 6.68854 21.1525 8.38938Z" fill="#2A6600"/>
<g filter="url(#filter0_i_42_137)">
<path d="M11.3898 22.7257C9.6 21.9611 8.81356 22.7611 8.64407 23.2566C9.86441 22.9168 12.2712 23.1575 13.322 23.2991C12.7525 23.2142 11.7966 22.8672 11.3898 22.7257Z" fill="#C69084"/>
<path d="M5.38983 27.1858L0.101694 17.7345C0.101694 17.1398 0.508474 16.9911 0.711864 16.9911H1.72881C0.949152 15.9292 -0.142374 13.9327 1.72881 14.4425C3.6 14.9522 4.33898 16.8496 4.47457 17.7345L6 19.5398C8.17936 20.4031 8.67533 22.118 8.65816 23.0442C8.65674 23.1207 8.65182 23.1918 8.64407 23.2566C6.20339 23.7876 7.32203 26.0177 7.52542 25.9115C7.68813 25.8265 10.1017 26.4425 11.2881 26.7611C11.8644 27.0796 13.6881 27.8867 16.3729 28.5664C18.7751 29.1745 20.3251 30.1113 20.9647 30.6314C18.7862 28.767 16.5706 28.5634 16.3729 28.4602C16.1695 28.354 12.5085 27.1858 11.5932 26.7611C10.861 26.4212 8.57627 25.9115 7.52542 25.6991C6.87457 24.5097 7.79661 23.7876 8.33898 23.5752C9.07118 22.9805 11.8305 23.115 13.1186 23.2566C13.322 23.2566 15.1525 23.5752 16.7797 24.3186C18.0814 24.9133 19.4237 24.5664 19.9322 24.3186C21.0712 23.2142 22.9153 23.0088 23.6949 23.0442C23.8305 23.0088 24.4678 22.8956 25.9322 22.7257C27.7627 22.5133 31.322 22.8319 33.661 25.1681C35.5322 27.0372 36.4746 28.0708 36.7119 28.354C36.8136 28.4248 38.0542 29.9469 42.2034 35.469C46.3525 40.9911 47.7966 44.5664 48 45.6637C43.9661 45.7345 35.9186 45.8336 36 45.6637C36.1017 45.4513 33.8644 40.4602 32.4407 38.5487C31.3017 37.0195 29.8644 35.8584 29.2881 35.469C27.0915 33.6 23.9661 33.3805 22.983 33.6637C17.7763 33.154 16.4068 33.1681 16.3729 33.2389C14.9085 33.8336 13.4576 32.4956 12.9153 31.7522C8.44068 28.6938 6.0339 27.4336 5.38983 27.1858Z" fill="#C69084"/>
</g>
<path d="M77.632 3.164C78.1653 3.164 78.6133 3.18533 78.976 3.228V3.548C77.6533 3.612 76.512 3.932 75.552 4.508C74.464 5.16933 73.6853 5.788 73.216 6.364C72.768 6.91867 72.4053 7.37733 72.128 7.74C71.872 8.08133 71.616 8.49733 71.36 8.988C70.9547 9.73467 70.5813 10.4707 70.24 11.196L61.664 29.948C60.6827 32.06 60.16 33.4573 60.096 34.14H59.808L50.112 13.244C49.792 12.6467 49.3867 12.1987 48.896 11.9C48.4053 11.58 47.904 11.42 47.392 11.42H47.136V11.1H57.312V11.42H57.056C56.5867 11.42 56.2347 11.5693 56 11.868C55.7867 12.1453 55.68 12.412 55.68 12.668C55.68 12.924 55.7227 13.18 55.808 13.436L61.248 26.652L67.872 11.196C68.8747 8.828 70.048 7.04667 71.392 5.852C73.376 4.06 75.456 3.164 77.632 3.164ZM72.76 33.18C73.3147 33.18 73.784 32.988 74.168 32.604C74.5733 32.1987 74.7867 31.7187 74.808 31.164V13.34C74.744 12.5933 74.392 12.0387 73.752 11.676C73.432 11.5053 73.1013 11.42 72.76 11.42H72.344V11.1H84.6C85.2613 11.1 85.9867 11.036 86.776 10.908C87.5653 10.78 88.12 10.652 88.44 10.524V16.124H88.12V15.74C88.12 14.78 87.832 14.012 87.256 13.436C86.7013 12.8387 85.944 12.5187 84.984 12.476H79.608V21.788H83.832C84.6213 21.7667 85.272 21.5 85.784 20.988C86.296 20.4547 86.552 19.804 86.552 19.036V18.748H86.872V26.14H86.552V25.884C86.552 24.8173 86.1253 24.028 85.272 23.516C84.8453 23.2813 84.376 23.1533 83.864 23.132H79.608V32.124H83.8C85.3573 32.124 86.6587 31.676 87.704 30.78C88.7707 29.884 89.56 28.6147 90.072 26.972H90.392L88.92 33.5H72.344V33.18H72.76ZM101.239 12.508H99.8625C99.8198 12.508 99.7878 12.508 99.7665 12.508V31.164C99.7878 31.9533 100.129 32.54 100.791 32.924C101.111 33.0947 101.452 33.18 101.815 33.18H102.231V33.5H92.5025V33.18H92.9185C93.6865 33.18 94.2732 32.8493 94.6785 32.188C94.8492 31.8893 94.9452 31.5587 94.9665 31.196V13.436C94.9452 12.8813 94.7318 12.412 94.3265 12.028C93.9425 11.6227 93.4732 11.42 92.9185 11.42H92.5025V11.1H103.479C105.548 11.1 107.297 11.548 108.727 12.444C109.452 12.892 110.028 13.5213 110.455 14.332C110.881 15.1213 111.095 16.028 111.095 17.052C111.095 18.0547 110.913 18.9827 110.551 19.836C110.209 20.6893 109.623 21.436 108.791 22.076C107.98 22.716 106.999 23.1 105.847 23.228C107.084 23.6333 108.172 24.572 109.111 26.044C111.415 29.7347 113.121 31.932 114.231 32.636C114.785 32.9773 115.479 33.1587 116.311 33.18V33.5H113.175C111.361 33.5 109.847 33.2547 108.631 32.764C107.415 32.252 106.423 31.388 105.655 30.172C105.271 29.5533 104.78 28.6253 104.183 27.388C103.585 26.1293 103.191 25.2333 102.999 24.7C102.423 23.42 101.697 22.7053 100.823 22.556V22.236H101.815C102.775 22.236 103.617 21.948 104.343 21.372C105.089 20.796 105.591 19.8573 105.847 18.556C105.932 18.108 105.975 17.756 105.975 17.5C105.975 15.7507 105.623 14.492 104.919 13.724C104.215 12.9347 103.308 12.5293 102.199 12.508C101.985 12.508 101.665 12.508 101.239 12.508ZM136.895 11.42H136.447C135.807 11.42 135.199 11.6013 134.623 11.964C134.047 12.3267 133.588 12.764 133.247 13.276L126.943 23.324V31.164C126.943 31.7187 127.146 32.1987 127.551 32.604C127.956 32.988 128.436 33.18 128.991 33.18H129.375L129.407 33.5H119.679V33.18H120.095C120.65 33.18 121.119 32.988 121.503 32.604C121.908 32.22 122.122 31.7507 122.143 31.196V23.292L116.031 13.244C115.711 12.732 115.252 12.3053 114.655 11.964C114.079 11.6013 113.482 11.42 112.863 11.42H112.415V11.1H123.007V11.42H122.591C122.122 11.42 121.759 11.6333 121.503 12.06C121.375 12.2947 121.311 12.5293 121.311 12.764C121.311 12.9773 121.364 13.1907 121.471 13.404L126.047 21.724L130.783 13.404C130.911 13.1907 130.975 12.9773 130.975 12.764C130.975 12.5293 130.9 12.3053 130.751 12.092C130.495 11.644 130.132 11.42 129.663 11.42H129.279V11.1H136.895V11.42Z" fill="#4DAD09"/>
<path d="M166.404 39.836C165.87 39.836 165.348 39.7933 164.836 39.708C162.766 39.388 161.006 38.5987 159.556 37.34C158.105 36.1027 157.06 34.556 156.42 32.7C154.414 33.532 152.249 33.948 149.924 33.948C146.084 33.948 142.937 32.86 140.484 30.684C138.03 28.508 136.804 25.7133 136.804 22.3C136.804 20.0173 137.358 17.9907 138.468 16.22C139.598 14.4493 141.177 13.084 143.204 12.124C145.23 11.1427 147.545 10.652 150.148 10.652C151.854 10.652 153.508 10.8227 155.108 11.164C156.708 11.484 157.998 11.8893 158.98 12.38L159.044 17.884H158.788C158.276 15.9427 157.284 14.4813 155.812 13.5C154.361 12.4973 152.612 11.996 150.564 11.996C148.046 11.996 145.988 12.9667 144.388 14.908C142.809 16.828 142.02 19.3133 142.02 22.364C142.02 25.3933 142.798 27.8573 144.356 29.756C145.913 31.6547 147.918 32.604 150.372 32.604C151.694 32.604 152.836 32.316 153.796 31.74C154.777 31.164 155.438 30.396 155.78 29.436V24.572C155.78 24.1027 155.641 23.74 155.364 23.484C155.086 23.228 154.692 23.1 154.18 23.1H153.668V22.78H162.66V23.1H162.18C161.646 23.1 161.241 23.228 160.964 23.484C160.686 23.74 160.558 24.092 160.58 24.54V29.628C160.601 31.036 160.868 32.348 161.38 33.564C162.51 36.1667 164.388 37.788 167.012 38.428C167.716 38.5987 168.441 38.684 169.188 38.684C169.956 38.684 170.734 38.5987 171.524 38.428L171.588 38.748C169.753 39.4733 168.025 39.836 166.404 39.836ZM177.486 10.652C181.433 10.652 184.569 11.6973 186.894 13.788C189.22 15.8787 190.382 18.716 190.382 22.3C190.382 25.884 189.22 28.7213 186.894 30.812C184.569 32.9027 181.433 33.948 177.486 33.948C173.54 33.948 170.404 32.9027 168.078 30.812C165.753 28.7213 164.59 25.884 164.59 22.3C164.59 19.932 165.113 17.8733 166.158 16.124C167.225 14.3533 168.729 12.9987 170.67 12.06C172.612 11.1213 174.884 10.652 177.486 10.652ZM171.886 29.852C173.273 31.6867 175.14 32.604 177.486 32.604C179.833 32.604 181.689 31.6867 183.054 29.852C184.441 27.996 185.134 25.4787 185.134 22.3C185.134 20.2093 184.825 18.3853 184.206 16.828C183.588 15.2707 182.702 14.076 181.55 13.244C180.398 12.412 179.044 11.996 177.486 11.996C175.14 11.996 173.273 12.924 171.886 14.78C170.521 16.6147 169.838 19.1213 169.838 22.3C169.838 25.4787 170.521 27.996 171.886 29.852ZM190.768 10.652C194.714 10.652 197.85 11.6973 200.176 13.788C202.501 15.8787 203.664 18.716 203.664 22.3C203.664 25.884 202.501 28.7213 200.176 30.812C197.85 32.9027 194.714 33.948 190.768 33.948C186.821 33.948 183.685 32.9027 181.36 30.812C179.034 28.7213 177.872 25.884 177.872 22.3C177.872 19.932 178.394 17.8733 179.44 16.124C180.506 14.3533 182.01 12.9987 183.952 12.06C185.893 11.1213 188.165 10.652 190.768 10.652ZM185.168 29.852C186.554 31.6867 188.421 32.604 190.768 32.604C193.114 32.604 194.97 31.6867 196.336 29.852C197.722 27.996 198.416 25.4787 198.416 22.3C198.416 20.2093 198.106 18.3853 197.488 16.828C196.869 15.2707 195.984 14.076 194.832 13.244C193.68 12.412 192.325 11.996 190.768 11.996C188.421 11.996 186.554 12.924 185.168 14.78C183.802 16.6147 183.12 19.1213 183.12 22.3C183.12 25.4787 183.802 27.996 185.168 29.852ZM217.148 11.1C220.924 11.1 223.91 12.1027 226.108 14.108C228.305 16.1133 229.404 18.844 229.404 22.3C229.404 25.756 228.305 28.4867 226.108 30.492C223.91 32.4973 220.924 33.5 217.148 33.5H205.532V33.18H205.948C206.502 33.18 206.972 32.988 207.356 32.604C207.761 32.1987 207.974 31.7187 207.996 31.164V13.244C207.932 12.732 207.708 12.3053 207.324 11.964C206.94 11.6013 206.481 11.42 205.948 11.42H205.532V11.1H217.148ZM216.732 32.156C218.268 32.156 219.59 31.7613 220.7 30.972C221.83 30.1613 222.694 29.02 223.292 27.548C223.889 26.0547 224.188 24.3053 224.188 22.3C224.188 19.2707 223.516 16.8707 222.172 15.1C220.849 13.3293 219.036 12.444 216.732 12.444H212.796V32.156H216.732Z" fill="#956D64"/>
<path d="M256.544 20.988C256.608 21.628 256.64 22.4387 256.64 23.42C256.64 24.38 256.448 25.564 256.064 26.972C255.68 28.3587 254.986 29.5853 253.984 30.652C251.936 32.8493 249.12 33.948 245.536 33.948C241.184 33.948 237.749 32.8813 235.232 30.748C232.714 28.5933 231.456 25.788 231.456 22.332C231.456 18.8547 232.725 16.0387 235.264 13.884C237.824 11.7293 241.194 10.652 245.376 10.652C246.976 10.652 248.501 10.812 249.952 11.132C251.402 11.452 252.608 11.868 253.568 12.38L253.632 17.884H253.376C253.013 16.5187 252.405 15.3773 251.552 14.46C250.016 12.8173 247.946 11.996 245.344 11.996C242.741 11.996 240.64 12.924 239.04 14.78C237.461 16.636 236.672 19.1 236.672 22.172C236.672 25.2227 237.493 27.708 239.135 29.628C240.8 31.548 243.082 32.54 245.984 32.604C249.12 32.604 251.616 31.6013 253.472 29.596C255.328 27.5907 256.256 24.8707 256.256 21.436C256.256 21.2867 256.256 21.1373 256.256 20.988H256.544ZM280.554 33.18H280.842V33.5H270.634V33.18H270.922C271.391 33.18 271.732 33.0413 271.946 32.764C272.18 32.4653 272.298 32.188 272.298 31.932C272.298 31.676 272.244 31.42 272.138 31.164L270.57 27.228H263.082L261.418 31.164C261.311 31.4413 261.258 31.708 261.258 31.964C261.258 32.1987 261.364 32.4653 261.578 32.764C261.812 33.0413 262.175 33.18 262.666 33.18H262.922V33.5H256.073V33.18H256.361C256.852 33.18 257.343 33.0307 257.834 32.732C258.324 32.4333 258.73 31.9853 259.049 31.388L266.442 14.652C267.444 12.54 267.978 11.1427 268.042 10.46H268.33L277.834 31.324C278.154 31.9427 278.559 32.412 279.05 32.732C279.54 33.0307 280.042 33.18 280.554 33.18ZM263.626 25.884H270.026L266.922 18.012L263.626 25.884ZM290.02 12.508H288.644C288.601 12.508 288.569 12.508 288.548 12.508V31.164C288.569 31.9533 288.91 32.54 289.572 32.924C289.892 33.0947 290.233 33.18 290.596 33.18H291.012V33.5H281.284V33.18H281.7C282.468 33.18 283.054 32.8493 283.46 32.188C283.63 31.8893 283.726 31.5587 283.748 31.196V13.436C283.726 12.8813 283.513 12.412 283.108 12.028C282.724 11.6227 282.254 11.42 281.7 11.42H281.284V11.1H292.26C294.329 11.1 296.078 11.548 297.508 12.444C298.233 12.892 298.809 13.5213 299.236 14.332C299.662 15.1213 299.876 16.028 299.876 17.052C299.876 18.0547 299.694 18.9827 299.332 19.836C298.99 20.6893 298.404 21.436 297.572 22.076C296.761 22.716 295.78 23.1 294.628 23.228C295.865 23.6333 296.953 24.572 297.892 26.044C300.196 29.7347 301.902 31.932 303.012 32.636C303.566 32.9773 304.26 33.1587 305.092 33.18V33.5H301.956C300.142 33.5 298.628 33.2547 297.412 32.764C296.196 32.252 295.204 31.388 294.436 30.172C294.052 29.5533 293.561 28.6253 292.964 27.388C292.366 26.1293 291.972 25.2333 291.78 24.7C291.204 23.42 290.478 22.7053 289.604 22.556V22.236H290.596C291.556 22.236 292.398 21.948 293.124 21.372C293.87 20.796 294.372 19.8573 294.628 18.556C294.713 18.108 294.756 17.756 294.756 17.5C294.756 15.7507 294.404 14.492 293.7 13.724C292.996 12.9347 292.089 12.5293 290.98 12.508C290.766 12.508 290.446 12.508 290.02 12.508ZM305.104 33.18C305.658 33.18 306.128 32.988 306.512 32.604C306.917 32.1987 307.13 31.7187 307.152 31.164V13.34C307.088 12.5933 306.736 12.0387 306.096 11.676C305.776 11.5053 305.445 11.42 305.104 11.42H304.688V11.1H316.944C317.605 11.1 318.33 11.036 319.12 10.908C319.909 10.78 320.464 10.652 320.784 10.524V16.124H320.464V15.74C320.464 14.78 320.176 14.012 319.6 13.436C319.045 12.8387 318.288 12.5187 317.328 12.476H311.952V21.788H316.176C316.965 21.7667 317.616 21.5 318.128 20.988C318.64 20.4547 318.896 19.804 318.896 19.036V18.748H319.216V26.14H318.896V25.884C318.896 24.8173 318.469 24.028 317.616 23.516C317.189 23.2813 316.72 23.1533 316.208 23.132H311.952V32.124H316.144C317.701 32.124 319.002 31.676 320.048 30.78C321.114 29.884 321.904 28.6147 322.416 26.972H322.736L321.264 33.5H304.688V33.18H305.104Z" fill="#296300"/>
<defs>
<filter id="filter0_i_42_137" x="-2.89831" y="10.3607" width="50.8983" height="35.3969" filterUnits="userSpaceOnUse" color-interpolation-filters="sRGB">
<feFlood flood-opacity="0" result="BackgroundImageFix"/>
<feBlend mode="normal" in="SourceGraphic" in2="BackgroundImageFix" result="shape"/>
<feColorMatrix in="SourceAlpha" type="matrix" values="0 0 0 0 0 0 0 0 0 0 0 0 0 0 0 0 0 0 127 0" result="hardAlpha"/>
<feOffset dx="-3" dy="-15"/>
<feGaussianBlur stdDeviation="2"/>
<feComposite in2="hardAlpha" operator="arithmetic" k2="-1" k3="1"/>
<feColorMatrix type="matrix" values="0 0 0 0 0 0 0 0 0 0 0 0 0 0 0 0 0 0 0.25 0"/>
<feBlend mode="normal" in2="shape" result="effect1_innerShadow_42_137"/>
</filter>
</defs>
</svg>
